<?xml version="1.0" encoding="UTF-8" standalone="no"?>
<!-- Created with Inkscape (http://www.inkscape.org/) -->

<svg
   version="1.1"
   id="svg2"
   width="2002.6667"
   height="1496"
   viewBox="0 0 2002.6667 1496"
   sodipodi:docname="3132845_37168.eps"
   xmlns:inkscape="http://www.inkscape.org/namespaces/inkscape"
   xmlns:sodipodi="http://sodipodi.sourceforge.net/DTD/sodipodi-0.dtd"
   xmlns="http://www.w3.org/2000/svg"
   xmlns:svg="http://www.w3.org/2000/svg">
  <defs
     id="defs6" />
  <sodipodi:namedview
     id="namedview4"
     pagecolor="#ffffff"
     bordercolor="#000000"
     borderopacity="0.25"
     inkscape:showpageshadow="2"
     inkscape:pageopacity="0.0"
     inkscape:pagecheckerboard="0"
     inkscape:deskcolor="#d1d1d1" />
  <g
     id="g8"
     inkscape:groupmode="layer"
     inkscape:label="ink_ext_XXXXXX"
     transform="matrix(1.3333333,0,0,-1.3333333,0,1496)">
    <g
       id="g10"
       transform="scale(0.1)">
      <path
         d="M 0,0 H 15020 V 11220 H 0 Z"
         style="fill:#ffffff;fill-opacity:1;fill-rule:nonzero;stroke:none"
         id="path12" />
      <path
         d="m 10609,798 c -440,0.102 -1302.45,104.699 -1936.89,279.1 -524.91,124.5 -838.63,227.17 -1215.97,227.17 -143.24,0 -295.67,-14.8 -472.25,-48.81 -202.3,-38.96 -489.5,-63.56 -779.19,-63.56 -300.42,0 -603.51,26.5 -817.03,90.99 C 4898.73,1119.4 4115.65,1018.9 3738.4,1018.9 c -37.88,0 -71.68,1 -100.67,3.1 -664.24,47.3 -2975.484,173.5 -2247.53,804.45 330.91,286.84 1037.71,365.03 1710.48,365.03 807.17,0 1565.28,-112.64 1565.28,-112.64 331.31,-70.41 579.76,-139.5 759.2,-206.56 232.54,92.17 554.65,124.19 875.49,124.19 421.64,0 841.06,-55.32 1051.76,-102.15 81.44,-18.1 178.23,-25.55 282.59,-25.55 489.7,0.02 1144.45,164.35 1144.48,164.36 175.31,49.29 380.16,99.24 617.67,149.71 0,0 990.35,147.16 2044.95,147.16 878.9,0 1802.5,-102.2 2234.7,-476.89 951.1,-824.31 -2068.5,-989.208 -2936.3,-1051.008 -37.9,-2.704 -82,-4.102 -131.5,-4.102"
         style="fill:#ececec;fill-opacity:1;fill-rule:nonzero;stroke:none"
         id="path14" />
      <path
         d="M 5754.79,2998.51 V 1840.14 h -174.84 l -109.28,699.39 -98.36,535.47 382.48,-76.49"
         style="fill:#cab5a1;fill-opacity:1;fill-rule:nonzero;stroke:none"
         id="path16" />
      <path
         d="m 5372.31,3118.71 -65.56,-502.68 -87.42,-808.67 -174.85,10.93 v 622.89 l -87.42,633.82 415.25,43.71"
         style="fill:#cab5a1;fill-opacity:1;fill-rule:nonzero;stroke:none"
         id="path18" />
      <path
         d="m 5068.81,4790.18 c 0,0 171.89,77.72 316.29,-178.66 144.39,-256.38 550.99,-1009.74 669.7,-1430.58 118.71,-420.83 -226.87,-215.81 -541.6,-352.54 -314.72,-136.73 -583.38,-210.95 -632.03,-20.36 -48.65,190.6 -578.67,1780.89 187.64,1982.14"
         style="fill:#b26650;fill-opacity:1;fill-rule:nonzero;stroke:none"
         id="path20" />
      <path
         d="m 5011.97,5351.72 c -190.89,248.92 -510.15,28.18 -496.18,-244.35 7.94,-154.98 145.98,-396.03 324.49,-357.97 14.7,-23.14 40.9,-67.22 67.71,-74.12 29.04,-7.48 84,41.34 105.95,59.64 6.09,5.08 12.29,10.7 14.76,18.23 3.09,9.44 -4.34,26.79 -13.63,45.48 17.63,10.45 34.51,23.44 50.38,39.3 66.59,66.54 87.07,169.74 70.26,262.5 -16.79,92.75 -66.37,176.48 -123.74,251.29"
         style="fill:#eacdb0;fill-opacity:1;fill-rule:nonzero;stroke:none"
         id="path22" />
      <path
         d="m 4788.3,5392.16 c 0,0 -236.69,-95.45 -222.46,-197.63 21.39,-153.6 25.53,-258.1 48.47,-348.02 l -188.02,78.61 -142.01,271.87 c 0,0 -12.3,237.85 104.63,295.79 116.91,57.95 366.67,134.39 366.67,134.39 l 202.66,-34.27 141.62,30.13 10.31,-436.02 c 0,0 -105.62,297.76 -321.87,205.15"
         style="fill:#5c3c30;fill-opacity:1;fill-rule:nonzero;stroke:none"
         id="path24" />
      <path
         d="m 5754.79,1840.14 98.35,-98.35 -43.71,-65.57 -196.7,65.57 v 98.35 h 142.06"
         style="fill:#8c9498;fill-opacity:1;fill-rule:nonzero;stroke:none"
         id="path26" />
      <path
         d="m 5190.19,1809.18 -36.43,-143.88 -120.21,-43.72 -65.56,32.79 101.78,162.34 120.42,-7.53"
         style="fill:#8c9498;fill-opacity:1;fill-rule:nonzero;stroke:none"
         id="path28" />
      <path
         d="m 2785.19,1958.57 c 234.45,-512.05 831.71,-756.17 1361.29,-546.16 351.65,139.41 587.82,445.09 654.13,790.97 l 1064.6,422.1 c 285.3,-206.49 666.77,-267.28 1018.41,-127.87 529.58,209.97 797.34,797.01 617.21,1330.6 l 1.77,0.23 -694.75,1752.29 -2.08,-0.37 c -139.07,284.91 -476.4,418.96 -776.05,300.16 -237.02,-93.98 -382.79,-319.35 -386.87,-559.31 l -55.38,-812.22 -1875.23,-743.48 -596.9,553.6 c -167.41,171.97 -428.01,236.23 -665.03,142.26 -299.64,-118.8 -453.47,-447.59 -359.53,-750.39 l -1.78,-1.16 694.75,-1752.28 1.44,1.03"
         style="fill:#2e4661;fill-opacity:1;fill-rule:nonzero;stroke:none"
         id="path30" />
      <path
         d="m 2785.19,1960.88 c 0,0 -754.82,2069.05 212.21,2452.53 -158.92,97.75 -360.3,122.01 -547.09,47.96 -299.64,-118.8 -453.47,-447.59 -359.53,-750.39 l -1.78,-1.16 694.56,-1751.83 1.63,2.89"
         style="fill:#283d54;fill-opacity:1;fill-rule:nonzero;stroke:none"
         id="path32" />
      <path
         d="m 5900.35,3336.71 264.58,104.9 c 30.44,12.07 64.9,-2.82 76.97,-33.27 l 104.9,-264.57 c 12.07,-30.44 46.53,-45.33 76.97,-33.26 l 264.58,104.89 c 30.44,12.07 45.33,46.53 33.26,76.98 l -104.89,264.57 c -12.07,30.44 2.82,64.9 33.26,76.97 l 259.06,102.71 c 30.44,12.07 45.34,46.53 33.26,76.98 l -104.89,264.57 c -12.07,30.44 -46.53,45.34 -76.97,33.27 l -259.06,-102.71 c -30.44,-12.07 -64.91,2.82 -76.98,33.26 l -102.71,259.06 c -12.07,30.44 -46.53,45.34 -76.97,33.27 l -264.57,-104.9 c -30.44,-12.07 -45.34,-46.53 -33.27,-76.97 l 102.71,-259.06 c 12.07,-30.45 -2.82,-64.91 -33.26,-76.98 l -264.58,-104.89 c -30.44,-12.07 -45.33,-46.53 -33.26,-76.98 l 104.89,-264.57 c 12.07,-30.44 46.53,-45.33 76.97,-33.27"
         style="fill:#283d54;fill-opacity:1;fill-rule:nonzero;stroke:none"
         id="path34" />
      <path
         d="m 3540.2,2179.89 c -40.24,101.49 9.41,216.39 110.9,256.63 101.5,40.24 216.39,-9.42 256.63,-110.91 40.24,-101.49 -9.42,-216.39 -110.9,-256.63 -101.5,-40.24 -216.39,9.42 -256.63,110.91"
         style="fill:#283d54;fill-opacity:1;fill-rule:nonzero;stroke:none"
         id="path36" />
      <path
         d="m 3758.86,2701.1 c -40.24,101.5 9.41,216.39 110.91,256.63 101.49,40.24 216.38,-9.42 256.63,-110.91 40.23,-101.49 -9.43,-216.39 -110.91,-256.62 -101.5,-40.24 -216.39,9.41 -256.63,110.9"
         style="fill:#283d54;fill-opacity:1;fill-rule:nonzero;stroke:none"
         id="path38" />
      <path
         d="m 3039.51,2415.9 c -40.24,101.49 9.42,216.39 110.91,256.62 101.48,40.24 216.39,-9.41 256.62,-110.9 40.25,-101.5 -9.41,-216.39 -110.91,-256.63 -101.49,-40.24 -216.38,9.42 -256.62,110.91"
         style="fill:#283d54;fill-opacity:1;fill-rule:nonzero;stroke:none"
         id="path40" />
      <path
         d="m 3246.66,2920.26 c -40.24,101.49 9.41,216.39 110.91,256.62 101.49,40.24 216.39,-9.41 256.62,-110.9 40.24,-101.5 -9.41,-216.39 -110.91,-256.63 -101.48,-40.24 -216.39,9.42 -256.62,110.91"
         style="fill:#283d54;fill-opacity:1;fill-rule:nonzero;stroke:none"
         id="path42" />
      <path
         d="m 5977.21,3303.5 264.58,104.9 c 30.44,12.07 64.9,-2.83 76.97,-33.27 l 104.89,-264.57 c 12.07,-30.45 46.54,-45.34 76.98,-33.27 l 264.57,104.9 c 30.44,12.07 45.34,46.53 33.27,76.97 l -104.91,264.58 c -12.06,30.44 2.84,64.9 33.28,76.97 l 259.06,102.71 c 30.44,12.07 45.33,46.53 33.26,76.97 l -104.89,264.58 c -12.07,30.44 -46.54,45.33 -76.98,33.26 l -259.06,-102.71 c -30.44,-12.07 -64.9,2.82 -76.97,33.27 l -102.72,259.06 c -12.07,30.44 -46.53,45.33 -76.97,33.26 L 6057,4196.22 c -30.44,-12.07 -45.33,-46.53 -33.27,-76.98 l 102.72,-259.06 c 12.07,-30.44 -2.83,-64.9 -33.27,-76.97 l -264.58,-104.9 c -30.44,-12.07 -45.33,-46.53 -33.26,-76.97 l 104.89,-264.57 c 12.07,-30.45 46.54,-45.34 76.98,-33.27"
         style="fill:#ffdb8c;fill-opacity:1;fill-rule:nonzero;stroke:none"
         id="path44" />
      <path
         d="m 3617.05,2146.68 c -40.24,101.49 9.41,216.39 110.91,256.63 101.49,40.23 216.39,-9.42 256.63,-110.91 40.23,-101.5 -9.42,-216.39 -110.91,-256.63 -101.49,-40.24 -216.39,9.41 -256.63,110.91"
         style="fill:#ffdb8c;fill-opacity:1;fill-rule:nonzero;stroke:none"
         id="path46" />
      <path
         d="m 3835.71,2667.89 c -40.24,101.49 9.42,216.38 110.91,256.62 101.5,40.24 216.39,-9.41 256.63,-110.9 40.24,-101.5 -9.42,-216.39 -110.91,-256.63 -101.49,-40.24 -216.39,9.42 -256.63,110.91"
         style="fill:#ffdb8c;fill-opacity:1;fill-rule:nonzero;stroke:none"
         id="path48" />
      <path
         d="m 3116.37,2382.68 c -40.25,101.49 9.41,216.39 110.91,256.63 101.48,40.24 216.38,-9.41 256.62,-110.91 40.24,-101.49 -9.42,-216.39 -110.91,-256.63 -101.5,-40.24 -216.39,9.42 -256.62,110.91"
         style="fill:#ffdb8c;fill-opacity:1;fill-rule:nonzero;stroke:none"
         id="path50" />
      <path
         d="m 3323.52,2887.04 c -40.25,101.5 9.41,216.39 110.9,256.63 101.5,40.24 216.39,-9.41 256.62,-110.91 40.25,-101.49 -9.41,-216.39 -110.9,-256.62 -101.49,-40.24 -216.39,9.41 -256.62,110.9"
         style="fill:#ffdb8c;fill-opacity:1;fill-rule:nonzero;stroke:none"
         id="path52" />
      <path
         d="m 6648.61,2706.25 c -154.83,-61.38 -315.74,-81.98 -470.86,-66.94 205.31,-85.21 442.68,-93.76 665.64,-5.35 454.61,180.24 677.03,694.89 496.79,1149.5 -27.66,69.76 -63.25,134 -105.24,192.21 173.51,-508.64 -81.31,-1069.19 -586.33,-1269.42"
         style="fill:#385575;fill-opacity:1;fill-rule:nonzero;stroke:none"
         id="path54" />
      <path
         d="m 6576.91,5832.58 v 0 c -158.93,97.78 -360.38,122 -547.19,47.94 -237.02,-93.98 -382.79,-319.35 -386.87,-559.31 l -53.73,-787.92 c 0.01,0.06 82.76,940.47 987.79,1299.29"
         style="fill:#283d54;fill-opacity:1;fill-rule:nonzero;stroke:none"
         id="path56" />
      <path
         d="m 3934.33,3557.88 815.42,321.12 815.42,321.11 22.27,310.49 -939.15,-373.97 -941.97,-366.82 228.01,-211.93"
         style="fill:#283d54;fill-opacity:1;fill-rule:nonzero;stroke:none"
         id="path58" />
      <path
         d="m 4828.32,4643.47 c 0,0 -868.32,-583.47 1.68,-1153.47 210,-120 210,-120 210,-120 l 100,100 -440,600 170,323.33 -41.68,250.14"
         style="fill:#b26650;fill-opacity:1;fill-rule:nonzero;stroke:none"
         id="path60" />
      <path
         d="m 5141.3,4801.01 c 0,0 526.94,145.4 507.82,-682.81 C 5650,3800 5650,3630 5650,3630 h -150 l -170,756.67 -188.7,414.34"
         style="fill:#b26650;fill-opacity:1;fill-rule:nonzero;stroke:none"
         id="path62" />
      <path
         d="m 5508.33,3630 -18.33,-130 50,-60 h 60 l 8.33,190 h -100"
         style="fill:#eacdb0;fill-opacity:1;fill-rule:nonzero;stroke:none"
         id="path64" />
      <path
         d="M 5124.17,3454.17 5220,3410 l 10,-110 -50,-10 -102.5,117.5 46.67,46.67"
         style="fill:#eacdb0;fill-opacity:1;fill-rule:nonzero;stroke:none"
         id="path66" />
      <path
         d="M 10590,7860 9350,7660 8260,8030 8070,7780 9294.25,7175.25 10260,7230 l 330,630"
         style="fill:#a1bdcc;fill-opacity:1;fill-rule:nonzero;stroke:none"
         id="path68" />
      <path
         d="M 11300.8,7545.79 11900,6520 12638.7,5837.91 12440,5570 l -869.6,573.31 -665.2,888.73 395.6,513.75"
         style="fill:#a1bdcc;fill-opacity:1;fill-rule:nonzero;stroke:none"
         id="path70" />
      <path
         d="m 9702.8,5577.46 -37.72,-1609.94 278.79,-2079.67 233.33,-2.77 170.1,1913.87 342,1911.82 -986.5,-133.31"
         style="fill:#8c9498;fill-opacity:1;fill-rule:nonzero;stroke:none"
         id="path72" />
      <path
         d="m 10176.2,1912.87 -1.5,-126.15 -253.83,-123.16 -124.65,127.65 127.65,124.65 252.33,-2.99"
         style="fill:#3a3029;fill-opacity:1;fill-rule:nonzero;stroke:none"
         id="path74" />
      <path
         d="m 10970.1,1852.09 -200.6,-170.52 50.1,-100.31 371.2,80.25 v 190.58 h -220.7"
         style="fill:#3a3029;fill-opacity:1;fill-rule:nonzero;stroke:none"
         id="path76" />
      <path
         d="m 10511.9,4944.14 166.7,-1560.49 220,-1555.45 313.9,14.92 -11.5,1613.62 188.9,1496.62 -443.6,206.66 -434.4,-215.88"
         style="fill:#8c9498;fill-opacity:1;fill-rule:nonzero;stroke:none"
         id="path78" />
      <path
         d="m 10576.3,7857.44 c 0,-0.02 -419.2,-200.25 -778.01,-989.29 -365.36,-803.49 -483.44,-1917.43 -483.44,-1917.43 0,0 2131.55,-674.14 2137.05,-304.19 0,0 482,2926.88 -476.6,3134.21 -43.6,9.42 -372.7,91.64 -399,76.7"
         style="fill:#a1bdcc;fill-opacity:1;fill-rule:nonzero;stroke:none"
         id="path80" />
      <path
         d="m 10689.3,7848.75 c -220.7,-378.56 -428.8,-826.75 -653.8,-1202.84 -133.32,-222.85 -168.91,-470.07 -218.42,-720.32 -49.23,-248.81 -98.45,-497.62 -147.68,-746.42 -20.8,-105.13 -41.6,-210.25 -62.4,-315.37 l 899.1,-223.13 c -10.2,311.14 -28,622.06 -32.4,933.35 -4.1,287.09 -26.5,611.9 64.8,888.03 44.4,134.4 90.8,268.43 135.9,402.72 82.7,246.38 140.1,502.32 224.9,747.97 6,17.18 7.4,168.01 4.2,186.48 l -214.2,49.53"
         style="fill:#ffffff;fill-opacity:1;fill-rule:nonzero;stroke:none"
         id="path82" />
      <path
         d="m 10691.6,7739.96 c 72.4,7.55 144.7,15.11 217,22.66 0.4,57.99 -3.8,116.02 -12.6,173.34 60.2,21.52 129.7,53.69 139.9,116.81 3.2,19.88 -0.3,40.16 -3.9,59.99 -14.6,81.96 -29.2,163.93 -43.8,245.89 -5,28.35 -10.4,57.53 -26,81.76 -27.3,42.52 -79.9,60.91 -129.7,69.29 -127.2,21.39 -265.5,-6.85 -363.5,-90.56 -26.1,-22.28 -49.7,-49.03 -61.1,-81.4 -17.5,-49.91 -3.9,-104.79 9.8,-155.9 12.6,-47.17 25.3,-94.34 37.9,-141.51 14.6,-54.26 35.5,-115.91 87.9,-136.01 27.9,-10.67 60.7,-7.34 85.9,-23.21 44.5,-28 38.9,-94.01 62.2,-141.15"
         style="fill:#eacdb0;fill-opacity:1;fill-rule:nonzero;stroke:none"
         id="path84" />
      <path
         d="m 10286.6,8278.95 176.4,-250.18 -63,243.87 z"
         style="fill:#3a3029;fill-opacity:1;fill-rule:nonzero;stroke:none"
         id="path86" />
      <path
         d="m 9979.16,8555.43 c -1.78,56.25 5.76,113.22 16.66,164.59 18.78,88.27 122.48,128.57 212.48,135.4 194.3,14.77 381.3,104.14 571.7,37.35 108.7,-38.18 254.6,-46.55 353.1,-100.74 41.2,-22.63 74.1,-58.15 99.9,-97.44 89.1,-136.14 90.6,-324.49 3.6,-462 -19.6,-30.85 -43,-59.08 -67.6,-86.05 -50.9,-55.82 -111.8,-124.76 -182.2,-145.71 -2,63.03 54.4,262.1 5.7,313.52 -77.3,81.59 -250.8,52.08 -346,31.4 -103.9,-22.56 -196.1,-96.67 -299.1,-112.93 -74.1,-11.7 -169,24.17 -232.3,62.18 -99.1,59.56 -132.73,158.81 -135.94,260.43"
         style="fill:#3a3029;fill-opacity:1;fill-rule:nonzero;stroke:none"
         id="path88" />
      <path
         d="m 12551.8,5643.63 c 223,517.16 3.9,1124.05 -506.8,1376.43 -339.2,167.58 -724.3,138.04 -1025.5,-44.53 l -1026.69,507.35 c -37.93,350.14 -248.43,674.02 -587.56,841.6 -510.72,252.39 -1125.87,57.73 -1401.24,-433.53 l -1.34,1.15 -835.09,-1689.91 1.68,-1.3 c -118.28,-294.15 8.27,-634.37 297.24,-777.17 228.6,-112.96 493.56,-70.12 674.41,87.65 l 639.98,503.17 1808.51,-893.67 -10.9,-814.02 c -15.5,-239.51 111.4,-476 340,-588.95 289,-142.8 636.1,-36.66 797.9,235.98 l 2.1,-0.54 835,1689.92 -1.7,0.37"
         style="fill:#2e4661;fill-opacity:1;fill-rule:nonzero;stroke:none"
         id="path90" />
      <path
         d="m 12550.1,5642.09 c 0,0 -1029.9,-1946.78 -1962.6,-1485.98 33.9,-183.46 150.9,-349.2 331,-438.21 289,-142.8 636.1,-36.66 797.9,235.98 l 2.1,-0.54 834.8,1689.47 -3.2,-0.72"
         style="fill:#283d54;fill-opacity:1;fill-rule:nonzero;stroke:none"
         id="path92" />
      <path
         d="m 9441.34,7032.35 -255.16,126.09 c -29.35,14.51 -41.39,50.07 -26.88,79.43 l 126.08,255.15 c 14.51,29.36 2.47,64.92 -26.88,79.43 l -255.16,126.08 c -29.36,14.51 -64.92,2.47 -79.42,-26.88 l -126.1,-255.16 c -14.5,-29.36 -50.07,-41.4 -79.42,-26.89 l -249.84,123.46 c -29.36,14.51 -64.92,2.47 -79.43,-26.89 l -126.08,-255.16 c -14.51,-29.35 -2.47,-64.91 26.89,-79.42 l 249.84,-123.46 c 29.36,-14.51 41.39,-50.07 26.89,-79.43 L 8443.2,6698.86 c -14.5,-29.36 -2.46,-64.91 26.9,-79.42 l 255.15,-126.09 c 29.36,-14.51 64.92,-2.47 79.43,26.89 l 123.45,249.84 c 14.52,29.36 50.07,41.4 79.44,26.89 l 255.14,-126.09 c 29.37,-14.51 64.93,-2.47 79.44,26.89 l 126.08,255.16 c 14.5,29.36 2.47,64.92 -26.89,79.42"
         style="fill:#283d54;fill-opacity:1;fill-rule:nonzero;stroke:none"
         id="path94" />
      <path
         d="m 11881.6,6055.73 c -48.4,-97.88 -166.9,-138.02 -264.8,-89.65 -97.9,48.37 -138,166.92 -89.7,264.8 48.4,97.88 167,138.02 264.8,89.65 97.9,-48.37 138.1,-166.92 89.7,-264.8"
         style="fill:#283d54;fill-opacity:1;fill-rule:nonzero;stroke:none"
         id="path96" />
      <path
         d="m 11348.2,5868.76 c -48.4,-97.88 -166.9,-138.02 -264.8,-89.65 -97.9,48.37 -138,166.92 -89.7,264.8 48.4,97.88 167,138.02 264.8,89.65 97.9,-48.37 138.1,-166.92 89.7,-264.8"
         style="fill:#283d54;fill-opacity:1;fill-rule:nonzero;stroke:none"
         id="path98" />
      <path
         d="m 12041.9,5525.94 c -48.3,-97.88 -166.9,-138.02 -264.8,-89.65 -97.9,48.37 -138,166.93 -89.6,264.8 48.3,97.88 166.9,138.02 264.8,89.65 97.9,-48.36 138,-166.92 89.6,-264.8"
         style="fill:#283d54;fill-opacity:1;fill-rule:nonzero;stroke:none"
         id="path100" />
      <path
         d="m 11528.8,5341.72 c -48.4,-97.88 -167,-138.02 -264.8,-89.65 -97.9,48.36 -138.1,166.92 -89.7,264.8 48.4,97.88 166.9,138.02 264.8,89.65 97.9,-48.37 138,-166.93 89.7,-264.8"
         style="fill:#283d54;fill-opacity:1;fill-rule:nonzero;stroke:none"
         id="path102" />
      <path
         d="m 9414.49,7111.66 -255.15,126.08 c -29.36,14.51 -41.4,50.07 -26.89,79.43 l 126.09,255.15 c 14.51,29.36 2.47,64.92 -26.89,79.43 l -255.16,126.09 c -29.36,14.5 -64.92,2.47 -79.43,-26.89 l -126.08,-255.16 c -14.51,-29.36 -50.07,-41.4 -79.43,-26.89 l -249.84,123.46 c -29.36,14.51 -64.91,2.47 -79.42,-26.89 L 8236.2,7310.32 c -14.51,-29.36 -2.47,-64.92 26.89,-79.43 l 249.84,-123.46 c 29.36,-14.51 41.4,-50.07 26.88,-79.42 l -123.45,-249.84 c -14.5,-29.36 -2.47,-64.92 26.89,-79.43 l 255.16,-126.09 c 29.35,-14.5 64.91,-2.46 79.42,26.89 l 123.46,249.84 c 14.51,29.36 50.07,41.4 79.42,26.89 l 255.16,-126.08 c 29.35,-14.51 64.92,-2.47 79.42,26.89 l 126.1,255.15 c 14.5,29.36 2.46,64.92 -26.9,79.43"
         style="fill:#ffdb8c;fill-opacity:1;fill-rule:nonzero;stroke:none"
         id="path104" />
      <path
         d="m 11854.7,6135.03 c -48.3,-97.88 -166.9,-138.02 -264.8,-89.65 -97.8,48.37 -138,166.93 -89.6,264.81 48.4,97.88 166.9,138.01 264.8,89.64 97.9,-48.36 138,-166.92 89.6,-264.8"
         style="fill:#ffdb8c;fill-opacity:1;fill-rule:nonzero;stroke:none"
         id="path106" />
      <path
         d="m 11321.3,5948.06 c -48.3,-97.88 -166.9,-138.02 -264.8,-89.65 -97.8,48.37 -138,166.93 -89.6,264.81 48.4,97.87 166.9,138.01 264.8,89.64 97.9,-48.36 138,-166.92 89.6,-264.8"
         style="fill:#ffdb8c;fill-opacity:1;fill-rule:nonzero;stroke:none"
         id="path108" />
      <path
         d="m 12015.1,5605.24 c -48.4,-97.88 -166.9,-138.01 -264.8,-89.65 -97.9,48.37 -138,166.93 -89.7,264.81 48.4,97.88 167,138.02 264.8,89.65 97.9,-48.37 138,-166.93 89.7,-264.81"
         style="fill:#ffdb8c;fill-opacity:1;fill-rule:nonzero;stroke:none"
         id="path110" />
      <path
         d="m 11501.9,5421.02 c -48.4,-97.88 -166.9,-138.02 -264.8,-89.65 -97.9,48.37 -138,166.92 -89.6,264.8 48.3,97.88 166.9,138.02 264.8,89.65 97.8,-48.36 138,-166.92 89.6,-264.8"
         style="fill:#ffdb8c;fill-opacity:1;fill-rule:nonzero;stroke:none"
         id="path112" />
      <path
         d="m 9407.88,8010.23 c 149.33,-73.78 272.44,-179.42 365.23,-304.63 -74.34,209.49 -227.07,391.4 -442.08,497.66 -438.44,216.65 -969.49,36.86 -1186.14,-401.57 -33.25,-67.28 -57.08,-136.74 -72.15,-206.91 261.26,469.63 848.09,656.13 1335.14,415.45"
         style="fill:#385575;fill-opacity:1;fill-rule:nonzero;stroke:none"
         id="path114" />
      <path
         d="m 7135.4,5862 v 0 c 33.94,-183.49 150.95,-349.25 331.1,-438.28 228.6,-112.96 493.56,-70.12 674.41,87.65 l 620.84,488.12 C 8761.7,5999.45 8008.22,5430.69 7135.4,5862"
         style="fill:#283d54;fill-opacity:1;fill-rule:nonzero;stroke:none"
         id="path116" />
      <path
         d="m 10594.7,5424.85 -784.82,390.06 -784.78,390.06 -245.39,-191.53 906.93,-446.48 903.46,-453.36 4.6,311.25"
         style="fill:#283d54;fill-opacity:1;fill-rule:nonzero;stroke:none"
         id="path118" />
      <path
         d="m 12500,5534.93 c 20,-4.93 170,105.07 170,105.07 v 230 l -230,110 -80,-200 172.6,-170 -32.6,-75.07"
         style="fill:#eacdb0;fill-opacity:1;fill-rule:nonzero;stroke:none"
         id="path120" />
      <path
         d="m 7950,8060 24.24,-225.43 25.76,55.43 210,-30 80,120 -190,170 -150,-90"
         style="fill:#eacdb0;fill-opacity:1;fill-rule:nonzero;stroke:none"
         id="path122" />
    </g>
  </g>
</svg>
